<svg width="30" height="30" viewBox="0 0 30 30" fill="none" xmlns="http://www.w3.org/2000/svg">
<circle cx="15" cy="15" r="15" fill="#1B5E37"/>
<path d="M21.6667 12.6802V9.6535C21.6667 8.7135 21.24 8.3335 20.18 8.3335H17.4867C16.4267 8.3335 16 8.7135 16 9.6535V12.6735C16 13.6202 16.4267 13.9935 17.4867 13.9935H20.18C21.24 14.0002 21.6667 13.6202 21.6667 12.6802Z" fill="white"/>
<path d="M21.6667 20.18V17.4867C21.6667 16.4267 21.24 16 20.18 16H17.4867C16.4267 16 16 16.4267 16 17.4867V20.18C16 21.24 16.4267 21.6667 17.4867 21.6667H20.18C21.24 21.6667 21.6667 21.24 21.6667 20.18Z" fill="white"/>
<path d="M14 12.6802V9.6535C14 8.7135 13.5734 8.3335 12.5134 8.3335H9.82004C8.76004 8.3335 8.33337 8.7135 8.33337 9.6535V12.6735C8.33337 13.6202 8.76004 13.9935 9.82004 13.9935H12.5134C13.5734 14.0002 14 13.6202 14 12.6802Z" fill="white"/>
<path d="M14 20.18V17.4867C14 16.4267 13.5734 16 12.5134 16H9.82004C8.76004 16 8.33337 16.4267 8.33337 17.4867V20.18C8.33337 21.24 8.76004 21.6667 9.82004 21.6667H12.5134C13.5734 21.6667 14 21.24 14 20.18Z" fill="white"/>
</svg>
