<svg width="30" height="30" viewBox="0 0 30 30" fill="none" xmlns="http://www.w3.org/2000/svg">
<circle cx="15" cy="15" r="15" fill="#1B5E37"/>
<path d="M17.8333 21.9998C18.4776 21.9998 19 21.4775 19 20.8332C19 20.1888 18.4776 19.6665 17.8333 19.6665C17.189 19.6665 16.6666 20.1888 16.6666 20.8332C16.6666 21.4775 17.189 21.9998 17.8333 21.9998Z" fill="white"/>
<path d="M12.5 21.9998C13.1444 21.9998 13.6667 21.4775 13.6667 20.8332C13.6667 20.1888 13.1444 19.6665 12.5 19.6665C11.8557 19.6665 11.3334 20.1888 11.3334 20.8332C11.3334 21.4775 11.8557 21.9998 12.5 21.9998Z" fill="white"/>
<path d="M10.2267 9.62683L10.0934 11.2602C10.0667 11.5735 10.3134 11.8335 10.6267 11.8335H20.8334C21.1134 11.8335 21.3467 11.6202 21.3667 11.3402C21.4534 10.1602 20.5534 9.20016 19.3734 9.20016H11.18C11.1134 8.90683 10.98 8.62683 10.7734 8.3935C10.44 8.04016 9.97337 7.8335 9.49337 7.8335H8.33337C8.06004 7.8335 7.83337 8.06016 7.83337 8.3335C7.83337 8.60683 8.06004 8.8335 8.33337 8.8335H9.49337C9.70004 8.8335 9.89337 8.92016 10.0334 9.06683C10.1734 9.22016 10.24 9.42016 10.2267 9.62683Z" fill="white"/>
<path d="M20.6733 12.8335H10.4467C10.1667 12.8335 9.93999 13.0468 9.91333 13.3202L9.67333 16.2202C9.57999 17.3602 10.4733 18.3335 11.6133 18.3335H19.0267C20.0267 18.3335 20.9067 17.5135 20.98 16.5135L21.2 13.4002C21.2267 13.0935 20.9867 12.8335 20.6733 12.8335Z" fill="white"/>
</svg>
