<svg width="30" height="30" viewBox="0 0 30 30" fill="none" xmlns="http://www.w3.org/2000/svg">
<circle cx="15" cy="15" r="15" fill="#1B5E37"/>
<path d="M20.8867 12.3402L16.52 8.84684C15.6667 8.16684 14.3333 8.16018 13.4867 8.84017L9.12002 12.3402C8.49335 12.8402 8.11335 13.8402 8.24668 14.6268L9.08668 19.6535C9.28002 20.7802 10.3267 21.6668 11.4667 21.6668H18.5333C19.66 21.6668 20.7267 20.7602 20.92 19.6468L21.76 14.6202C21.88 13.8402 21.5 12.8402 20.8867 12.3402ZM15.5 19.0002C15.5 19.2735 15.2733 19.5002 15 19.5002C14.7267 19.5002 14.5 19.2735 14.5 19.0002V17.0002C14.5 16.7268 14.7267 16.5002 15 16.5002C15.2733 16.5002 15.5 16.7268 15.5 17.0002V19.0002Z" fill="white"/>
</svg>
