<svg width="372" height="149" viewBox="0 0 372 149" fill="none" xmlns="http://www.w3.org/2000/svg">
<path d="M308 20.0875C308.002 20.757 307.806 21.4121 307.438 21.9696C307.069 22.5271 306.545 22.9622 305.93 23.2196C305.316 23.477 304.64 23.5452 303.987 23.4157C303.334 23.2861 302.734 22.9646 302.263 22.4917C301.792 22.0189 301.471 21.416 301.34 20.7595C301.21 20.1029 301.276 19.4222 301.53 18.8034C301.784 18.1847 302.215 17.6558 302.768 17.2836C303.322 16.9114 303.972 16.7128 304.638 16.7128C305.528 16.7128 306.382 17.068 307.012 17.7007C307.643 18.3333 307.998 19.1917 308 20.0875Z" fill="#60D290"/>
<path d="M226.086 24.8539C226.084 25.521 225.886 26.1726 225.517 26.7264C225.147 27.2802 224.623 27.7114 224.009 27.9655C223.396 28.2196 222.722 28.2852 222.072 28.154C221.422 28.0228 220.825 27.7007 220.357 27.2284C219.889 26.7561 219.57 26.1548 219.442 25.5004C219.313 24.846 219.38 24.1679 219.634 23.5517C219.888 22.9356 220.318 22.409 220.869 22.0386C221.421 21.6682 222.069 21.4705 222.732 21.4705C223.173 21.4705 223.61 21.558 224.017 21.7282C224.425 21.8983 224.795 22.1477 225.107 22.462C225.418 22.7763 225.665 23.1493 225.833 23.5598C226.001 23.9702 226.087 24.41 226.086 24.8539Z" fill="#60D290"/>
<path d="M183.236 68.3602C183.237 69.0297 183.042 69.6847 182.673 70.2423C182.305 70.7998 181.78 71.2348 181.166 71.4922C180.551 71.7497 179.875 71.8179 179.222 71.6883C178.569 71.5588 177.969 71.2372 177.498 70.7644C177.027 70.2916 176.706 69.6887 176.576 69.0321C176.445 68.3756 176.511 67.6948 176.765 67.0761C177.02 66.4573 177.451 65.9284 178.004 65.5562C178.557 65.1841 179.207 64.9854 179.873 64.9854C180.314 64.9843 180.751 65.0707 181.159 65.2398C181.567 65.4089 181.938 65.6573 182.25 65.9708C182.563 66.2843 182.81 66.6567 182.979 67.0667C183.149 67.4767 183.236 67.9163 183.236 68.3602Z" fill="#60D290"/>
<path d="M73.9703 4.28367C73.9703 4.95113 73.7736 5.6036 73.405 6.15857C73.0365 6.71354 72.5126 7.14609 71.8998 7.40152C71.2869 7.65694 70.6125 7.72377 69.9619 7.59356C69.3113 7.46334 68.7137 7.14193 68.2446 6.66997C67.7755 6.198 67.4561 5.59668 67.3267 4.94205C67.1972 4.28741 67.2637 3.60887 67.5175 2.99221C67.7714 2.37556 68.2013 1.8485 68.7528 1.47768C69.3044 1.10686 69.9529 0.908936 70.6162 0.908936C71.5051 0.911232 72.3569 1.26752 72.9854 1.89991C73.6139 2.5323 73.968 3.38934 73.9703 4.28367Z" fill="#60D290"/>
<path d="M269.991 91.5049C268.247 91.5066 266.541 90.9877 265.09 90.0139C263.639 89.0401 262.507 87.6552 261.839 86.0342C261.17 84.4133 260.994 82.6292 261.333 80.9077C261.673 79.1862 262.512 77.6046 263.745 76.363C264.977 75.1214 266.548 74.2755 268.259 73.9325C269.97 73.5895 271.743 73.7647 273.355 74.4359C274.966 75.1071 276.344 76.2442 277.313 77.7034C278.282 79.1625 278.8 80.8781 278.8 82.6331C278.795 84.9832 277.866 87.2357 276.215 88.8983C274.564 90.5608 272.327 91.498 269.991 91.5049ZM269.991 75.1705C268.524 75.1705 267.09 75.6081 265.87 76.4281C264.651 77.2482 263.7 78.4137 263.139 79.7773C262.577 81.1409 262.43 82.6414 262.717 84.089C263.003 85.5367 263.709 86.8664 264.746 87.9101C265.784 88.9537 267.105 89.6645 268.544 89.9524C269.983 90.2404 271.474 90.0926 272.829 89.5278C274.185 88.9629 275.343 88.0064 276.158 86.7792C276.973 85.5519 277.408 84.1091 277.408 82.6331C277.409 81.652 277.218 80.6802 276.846 79.7733C276.474 78.8664 275.928 78.0421 275.239 77.3475C274.55 76.6529 273.732 76.1016 272.832 75.7251C271.931 75.3486 270.966 75.1542 269.991 75.1531V75.1705Z" fill="#60D290"/>
<path d="M8.8173 45.2937C7.0734 45.2937 5.36867 44.7734 3.91867 43.7985C2.46867 42.8237 1.33854 41.4381 0.671182 39.817C0.00382164 38.1959 -0.170792 36.4121 0.169425 34.6912C0.509643 32.9702 1.34941 31.3894 2.58253 30.1487C3.81565 28.908 5.38674 28.063 7.09713 27.7207C8.80752 27.3784 10.5804 27.5541 12.1915 28.2256C13.8027 28.897 15.1798 30.0341 16.1486 31.4931C17.1175 32.952 17.6346 34.6673 17.6346 36.422C17.6323 38.7742 16.7026 41.0294 15.0495 42.6927C13.3965 44.3559 11.1551 45.2914 8.8173 45.2937ZM8.8173 28.9593C7.35037 28.9593 5.91639 29.397 4.69669 30.217C3.47699 31.037 2.52634 32.2025 1.96497 33.5661C1.40361 34.9297 1.25673 36.4302 1.54291 37.8779C1.82909 39.3255 2.53549 40.6552 3.57276 41.6989C4.61003 42.7426 5.9316 43.4533 7.37033 43.7413C8.80907 44.0292 10.3004 43.8814 11.6556 43.3166C13.0109 42.7518 14.1692 41.7952 14.9842 40.568C15.7992 39.3408 16.2342 37.8979 16.2342 36.422C16.2319 34.4434 15.4498 32.5466 14.0593 31.1476C12.6689 29.7486 10.7837 28.9616 8.8173 28.9593Z" fill="#60D290"/>
<path d="M361.639 67.1859C359.895 67.1876 358.189 66.6688 356.738 65.695C355.287 64.7212 354.155 63.3362 353.487 61.7153C352.818 60.0943 352.642 58.3102 352.981 56.5887C353.321 54.8672 354.16 53.2856 355.392 52.044C356.625 50.8024 358.196 49.9566 359.907 49.6136C361.618 49.2705 363.391 49.4457 365.003 50.1169C366.614 50.7882 367.992 51.9253 368.961 53.3844C369.93 54.8435 370.448 56.5591 370.448 58.3142C370.445 60.6649 369.517 62.9188 367.866 64.5818C366.214 66.2448 363.975 67.1813 361.639 67.1859ZM361.639 50.8515C360.17 50.8498 358.733 51.2867 357.51 52.107C356.288 52.9273 355.335 54.0941 354.772 55.4597C354.209 56.8252 354.061 58.3282 354.347 59.7783C354.633 61.2284 355.341 62.5605 356.38 63.6059C357.419 64.6513 358.743 65.3631 360.184 65.6511C361.625 65.9391 363.119 65.7904 364.476 65.2239C365.833 64.6573 366.993 63.6983 367.808 62.4683C368.623 61.2383 369.058 59.7926 369.056 58.3142C369.054 56.3356 368.271 54.4388 366.881 53.0398C365.491 51.6408 363.605 50.8538 361.639 50.8515Z" fill="#60D290"/>
<path d="M141.388 37.8223C139.643 37.824 137.937 37.3049 136.486 36.3308C135.035 35.3566 133.903 33.9711 133.235 32.3497C132.566 30.7282 132.391 28.9437 132.731 27.2219C133.071 25.5002 133.911 23.9186 135.145 22.6773C136.378 21.4361 137.95 20.5909 139.661 20.2489C141.372 19.9069 143.146 20.0833 144.758 20.7558C146.369 21.4284 147.746 22.5669 148.714 24.0271C149.682 25.4874 150.198 27.2039 150.197 28.9593C150.194 31.3092 149.266 33.5622 147.614 35.2238C145.963 36.8855 143.723 37.82 141.388 37.8223ZM141.388 21.4966C139.921 21.4966 138.487 21.9343 137.267 22.7543C136.048 23.5743 135.097 24.7398 134.536 26.1034C133.974 27.4671 133.827 28.9676 134.114 30.4152C134.4 31.8628 135.106 33.1925 136.143 34.2362C137.181 35.2799 138.502 35.9906 139.941 36.2786C141.38 36.5665 142.871 36.4187 144.226 35.8539C145.582 35.2891 146.74 34.3326 147.555 33.1053C148.37 31.8781 148.805 30.4353 148.805 28.9593C148.803 26.9808 148.02 25.0839 146.63 23.6849C145.24 22.2859 143.354 21.4989 141.388 21.4966Z" fill="#60D290"/>
</svg>
