<svg width="187" height="172" viewBox="0 0 187 172" fill="none" xmlns="http://www.w3.org/2000/svg">
<path d="M154.181 147.087C160.46 153.984 171.071 159.577 171.071 159.577C170.64 157.218 169.778 154.959 168.529 152.911C166.634 150.103 148.618 137.785 148.618 137.785C151.575 138.957 154.595 139.966 157.663 140.808C160.646 141.449 182.153 146.022 182.153 146.022C180.93 145.494 179.769 144.832 178.693 144.048C176.754 142.67 169.789 140.153 160.094 136.675C150.4 133.197 137.305 126.315 137.305 126.315C137.305 126.315 141.824 126.121 145.232 126.114C148.64 126.107 185.218 135.565 185.218 135.565C182.837 134.295 180.37 133.193 177.835 132.266C173.592 130.709 171.869 130.434 167.596 128.877C162.361 126.855 156.959 125.295 151.452 124.215C145.091 123.045 124.606 116.543 123.987 116.357C133.942 125.295 141.094 131.923 141.094 131.923C141.094 131.923 147.872 140.198 154.181 147.087Z" fill="#5DB957"/>
<path d="M59.5567 38.0583C59.5567 38.0583 72.7261 31.8692 83.7404 31.4298C94.7546 30.9903 130.482 28.6666 130.482 28.6666C130.482 28.6666 120.937 27.7207 114.762 28.1974C108.588 28.6741 104.434 27.6612 99.8479 27.3037C95.2617 26.9462 84.1878 27.3781 79.8403 26.6929C75.4927 26.0077 68.386 29.7912 59.3107 31.5713C50.2353 33.3513 36.5066 39.6745 36.5066 39.6745C36.5066 39.6745 32.778 34.6174 34.0532 33.5524C35.3284 32.4874 38.1994 31.1542 44.0906 29.0465C51.628 26.3182 59.3017 23.9814 67.081 22.0455C77.1706 19.4984 120.363 17.6141 120.363 17.6141L93.0246 15.6404C93.0246 15.6404 81.1826 17.9194 75.1273 17.5098C69.0721 17.1002 55.5075 19.1483 45.6417 21.3752C36.4768 23.4457 25.0897 29.7912 23.5386 30.7073C25.1568 31.966 26.7228 33.1577 28.1993 34.2525C32.992 37.9371 37.5474 41.9196 41.8385 46.1764C44.5399 44.2891 47.4167 42.6655 50.4292 41.3279C57.0213 38.2073 59.5567 38.0583 59.5567 38.0583Z" fill="#5DB957"/>
<path d="M152.145 119.91C159.379 120.655 187 120.856 187 120.856C187 120.856 169.61 117.251 166.977 116.849C164.345 116.447 158.864 115.94 148.864 115.635C138.864 115.329 133.092 113.185 126.768 111.121C122.423 109.625 118.21 107.769 114.173 105.573C114.173 105.573 122.1 105.379 126.485 106.057C130.87 106.735 136.03 107.003 152.257 108.82C168.484 110.637 186.374 108.753 186.374 108.753L180.93 106.824C178.208 105.863 176.321 106.467 172.585 106.243C168.849 106.02 160.042 106.087 153.592 104.903C147.141 103.718 143.719 103.726 130.676 102.229C117.633 100.732 104.061 97.909 104.061 97.909C107.835 97.6343 111.622 97.5646 115.404 97.7005C120.571 97.9686 120.34 98.2889 125.844 98.7879C131.347 99.2869 135.792 97.1047 145.061 96.3971C154.33 95.6896 182.071 91.5858 182.071 91.5858C182.071 91.5858 176.903 91.3177 174.614 91.139C172.324 90.9602 159.312 91.4443 154.658 92.5168C150.005 93.5893 129.393 94.4979 116.671 93.2616C109.52 92.599 102.442 91.2979 95.5228 89.3738C95.5228 89.3738 103.636 90.2825 107.275 89.9473C110.914 89.6122 118.29 89.5153 127.693 87.929C137.097 86.3426 174.561 80.8908 174.561 80.8908C174.561 80.8908 157.507 80.8908 153.868 81.2483C150.229 81.6058 143.957 81.5015 126.276 84.4806C108.595 87.4597 88.3713 82.3431 88.3713 82.3431C88.3713 82.3431 97.0888 81.7324 101.6 81.5387C108.448 81.3548 115.274 80.6803 122.026 79.5204C131.973 77.8372 168.797 71.9236 168.797 71.9236C168.797 71.9236 149.11 71.5438 140.952 72.0651C132.794 72.5864 132.108 73.5547 117.268 76.6232C102.428 79.6917 80.4295 75.7294 80.4295 75.7294C80.4295 75.7294 88.0805 73.8749 90.1984 72.9514C92.3162 72.0279 101.384 70.2106 109.46 69.1381C117.536 68.0656 158.573 60.3273 158.573 60.3273C158.573 60.3273 144.144 60.7742 142.391 60.4986C140.639 60.2231 131.049 60.7072 124.322 61.2434C117.596 61.7797 105.478 65.8387 95.5228 67.5145C88.2868 68.6167 80.9947 69.3129 73.6807 69.5999C73.6807 69.5999 75.0081 68.9817 77.3571 67.7305C83.1608 64.7163 89.2013 62.1805 95.4184 60.1486C104.307 57.229 149.513 47.0553 149.513 47.0553C149.513 47.0553 114.3 50.7196 103.278 52.5816C92.2565 54.4435 83.7404 60.1188 77.0737 62.6585C70.407 65.1982 66.7977 64.1481 66.7977 64.1481L58.386 58.1377C60.8951 57.7079 63.3503 57.0087 65.709 56.0523C68.1418 54.976 70.4965 53.7317 72.756 52.3284C76.9022 49.9302 81.466 48.3065 85.1498 46.5489C88.8337 44.7912 95.0082 44.3145 101.876 42.8845C108.744 41.4546 141.839 38.7063 141.839 38.7063C141.839 38.7063 133.815 38.3563 129.759 37.9019C125.702 37.4476 122.384 38.0062 117.864 38.1999C113.345 38.3935 106.067 39.034 97.9091 39.5554C89.7509 40.0767 90.3997 40.531 79.2661 43.823C68.1326 47.1149 55.0601 51.8815 50.5858 50.6452C48.0927 49.8968 45.6817 48.8987 43.3896 47.666C52.0847 56.1044 61.4659 65.6749 74.9335 75.223C87.7375 84.3242 109.028 102.959 123.994 116.387C124.24 116.439 130.877 117.817 137.76 118.89C144.77 119.992 144.889 119.113 152.145 119.91Z" fill="#5DB957"/>
<path d="M-4.67934 0L-5 0.134061V6.94882L-0.950752 4.7964C4.31402 2.00346 7.17012 1.96622 13.0986 0H-4.67934Z" fill="#5DB957"/>
<path d="M20.6602 21.5987C22.6885 20.1091 23.3298 20.5858 24.8958 19.7516C26.4618 18.9175 36.1338 15.5883 39.6834 14.702C45.1638 13.4959 50.7016 12.5662 56.2756 11.9165C62.1146 11.2164 109.095 9.55556 109.095 9.55556C109.095 9.55556 89.9075 7.10522 86.7233 6.79241C83.5391 6.4796 75.9328 6.90413 72.756 6.59132C69.5792 6.27851 57.2152 7.21694 55.2391 7.26907C48.3481 7.64751 41.5825 9.26741 35.2688 12.0506C26.0144 16.1618 9.00459 18.1801 9.00459 18.1801L2.1067 12.8028C5.56289 12.5503 8.99835 12.0676 12.3901 11.3579C17.0434 10.2854 43.3076 4.16333 54.1503 1.19165C56.6953 0.579544 59.287 0.18094 61.8984 0L46.0071 0C40.0414 1.15441 33.0316 2.48012 26.1561 3.64198C12.7332 5.87633 -0.234856 7.1648 -4.75391 7.56699C1.21184 12.6092 12.3007 21.9115 21.8831 29.4189L17.2522 25.0247C18.2196 23.7269 19.3671 22.5733 20.6602 21.5987Z" fill="#5DB957"/>
<path d="M26.835 122.144C27.0091 123.321 27.3905 124.459 27.9614 125.503C27.9614 125.503 27.4691 124.043 26.835 122.144Z" fill="#5DB957"/>
<path d="M138.178 129.905L124.919 117.869C128.648 123.582 142.384 144.272 147.067 148.852C152.518 154.185 160.833 163.003 160.833 163.003C160.833 163.003 154.77 152.375 150.393 146.856C146.015 141.337 138.178 129.905 138.178 129.905Z" fill="#5DB957"/>
<path d="M130.721 139.676C137.111 153.939 138.968 158.169 142.153 161.893C144.065 164.128 146.218 166.147 148.573 167.911C148.573 167.911 141.094 150.446 136.366 139.274C133.057 131.846 129.217 124.665 124.874 117.787L114.509 108.381C115.896 110.816 124.859 126.546 130.721 139.676Z" fill="#5DB957"/>
<path d="M64.747 77.2339C65.7985 73.793 67.2675 66.6356 67.3868 66.0622L31.8907 35.9059L-5 6.62109V12.6613C-4.217 16.8618 -3.57568 24.1235 -4.5302 35.8315C-4.6868 37.7679 -4.8434 39.5554 -5 41.3279V75.223C-2.46456 82.9836 1.24912 91.9061 1.24912 91.9061C1.24912 91.9061 0.0634246 73.078 -0.391463 55.2628C-0.846351 37.4476 0.033596 12.3038 0.033596 12.3038C0.033596 12.3038 4.91805 10.911 6.03663 39.4064C7.1552 67.9018 4.54519 81.1142 5.06719 85.8659C5.5892 90.6176 8.92255 103.681 8.92255 103.681C8.92255 103.681 8.13209 75.3794 10.7272 58.7856C13.3223 42.1919 8.98967 18.1801 8.98967 18.1801C8.98967 18.1801 18.863 27.5942 16.1187 55.3224C13.3745 83.0506 12.6437 97.0898 13.203 100.404C13.7623 103.718 16.3201 113.81 16.3201 113.81C16.3201 113.81 18.6542 80.4662 20.5259 69.6446C21.9502 61.3998 21.913 48.4555 21.3313 41.3428C24.3142 54.3318 27.7743 71.8789 27.0882 81.6132C25.9249 98.2814 23.5013 109.17 24.0606 112.514C24.8133 115.771 25.7393 118.986 26.8347 122.144C26.2978 119.426 26.0144 114.905 27.2821 107.993C29.6535 95.0938 35.5671 77.9116 33.3299 64.6545C31.0928 51.3974 23.3373 30.8116 23.3373 30.8116L35.224 42.1621C35.224 42.1621 38.095 49.0588 37.3866 65.0865C36.6782 81.1142 33.4268 90.4612 33.218 101.007C33.0092 111.553 34.9332 131.387 34.9332 131.387C34.9332 131.387 35.9474 108.783 37.5432 99.7114C39.139 90.64 43.2256 79.4384 44.7692 68.3859C46.3129 57.3333 41.3613 46.5265 41.3613 46.5265C41.3613 46.5265 52.9125 61.0721 51.7342 70.9032C50.556 80.7344 48.1324 91.6752 45.5299 104.895C43.8773 113.935 43.0462 123.106 43.0466 132.296C43.0093 133.726 45.9698 141.173 45.4627 139.84C44.9556 138.507 47.3419 110.555 50.3621 101.529C53.3823 92.5019 53.9714 84.1604 55.2988 76.8392C56.6261 69.5179 52.4874 53.453 52.4874 53.453C52.4874 53.453 63.2481 64.9897 62.562 65.9579C61.876 66.9261 61.6896 69.2275 58.0877 94.8331C54.4859 120.439 55.7611 131.581 56.5068 135.997C57.2525 140.414 60.5934 150.081 60.5934 150.081C60.5934 150.081 57.9237 129.227 60.0564 113.244C62.1892 97.2611 63.6508 80.8237 64.747 77.2339Z" fill="#5DB957"/>
<path d="M17.252 25.0247C17.252 25.0247 17.3191 25.2555 17.431 25.6801L17.252 25.0247Z" fill="#5DB957"/>
<path d="M67.4019 65.9951V66.0398L71.8762 69.8307C70.2281 62.7702 67.4019 65.9951 67.4019 65.9951Z" fill="#5DB957"/>
<path d="M71.8611 69.8308C72.4428 72.378 72.8753 76.2434 72.9648 82.0974C73.2854 104.195 69.445 121.884 69.6463 129.801C69.8477 137.718 73.8895 156.613 73.8895 156.613C73.8895 156.613 70.4368 132.78 74.1878 121.347C77.9387 109.915 79.4823 92.0551 79.4078 84.6892L79.2959 77.3233C79.2959 77.3233 86.7531 89.4186 85.5749 102.646C84.3966 115.873 79.6091 136.318 80.0715 142.484C80.5338 148.651 86.5145 162.132 86.5145 162.132C86.5145 162.132 85.381 145.285 86.686 131.149C87.991 117.013 89.4973 107.383 89.5346 102.549C89.5719 97.7155 87.9835 84.9201 87.9835 84.9201C87.9835 84.9201 92.1819 87.8992 93.6883 103.54C95.1946 119.18 96.179 130.099 95.135 135.67C94.091 141.241 94.3892 149.716 95.4855 152.941C96.5817 156.166 100.892 166.578 100.892 166.578C100.892 166.578 98.006 152.859 99.8255 140.056C101.414 128.885 101.138 113.155 100.698 106.124C102.48 113.907 104.591 124.245 105.441 132.869C107.037 149.068 108.67 160.426 110.474 162.66C112.279 164.895 115.463 168.619 115.463 168.619C115.463 168.619 112.525 159.786 111.779 151.936C111.034 144.086 111.123 126.203 109.497 118.242C107.872 110.28 106.052 101.208 106.052 101.208C110.966 111.696 114.728 122.683 117.275 133.979C121.131 151.787 121.929 158.184 124.427 162.876C126.293 166.155 128.527 169.211 131.086 171.985C131.086 171.985 126.306 155.466 125.038 146.305C123.771 137.144 121.541 123.887 120.199 120.982C118.983 118.361 115.165 109.922 114.442 108.321L74.0461 71.6928L71.8611 69.8308Z" fill="#5DB957"/>
<g opacity="0.3">
<path d="M71.8613 69.8307C72.443 72.3778 72.8755 76.2433 72.965 82.0973C72.965 84.0784 72.965 86.0297 72.965 87.9363C74.971 90.1707 76.962 92.338 78.9307 94.4308C79.2514 90.4909 79.3856 87.0649 79.3558 84.7114L79.2439 77.3455C79.2439 77.3455 86.0747 88.4428 85.6198 101.03C86.8577 102.182 88.1229 103.314 89.4155 104.426C89.4155 103.763 89.4826 103.145 89.4826 102.601C89.4826 97.7675 87.9316 84.9721 87.9316 84.9721C87.9316 84.9721 92.1299 87.9512 93.6363 103.592C93.7854 105.193 93.9346 106.727 94.0763 108.232C96.2612 109.922 98.5506 111.568 100.937 113.17C100.877 110.377 100.773 107.956 100.661 106.109C101.22 108.567 101.817 111.285 102.398 114.123C104.641 115.568 107.007 116.98 109.498 118.361V118.249C107.872 110.287 106.052 101.216 106.052 101.216C109.004 107.497 111.537 113.966 113.636 120.58C116.013 121.797 118.521 122.983 121.161 124.14C120.926 123.073 120.604 122.027 120.199 121.012C118.983 118.39 115.165 109.952 114.442 108.351L74.0463 71.6926L71.8613 69.8307Z" fill="black"/>
<path d="M67.4019 65.9951V66.0398L71.8762 69.8307C70.2281 62.7702 67.4019 65.9951 67.4019 65.9951Z" fill="black"/>
<path d="M114.442 108.344L114.509 108.404L114.315 108.075L114.442 108.344Z" fill="black"/>
<path d="M123.689 125.22C125.975 126.213 128.372 127.166 130.877 128.08C128.409 123.552 126.097 119.761 124.874 117.81L114.509 108.403C115.396 109.952 119.386 116.931 123.689 125.22Z" fill="black"/>
<path d="M19.9068 26.3951L10.9731 20.8539C13.1763 24.6396 14.6911 28.785 15.4475 33.0981C18.7883 35.5037 22.8524 38.5276 27.3044 42.0355C25.1567 35.6155 23.3371 30.8116 23.3371 30.8116L35.2239 42.1621C35.2239 42.1621 36.2455 44.6348 36.9241 50.0568C39.3925 52.1869 41.8981 54.4287 44.3813 56.7598C43.7612 53.2425 42.743 49.8068 41.3462 46.5191C41.3462 46.5191 47.7296 54.5404 50.5186 62.7106C52.0771 64.2821 53.6282 65.8909 55.142 67.5219C54.5191 62.7832 53.6278 58.0835 52.4724 53.4456C52.4724 53.4456 63.248 64.9897 62.5619 65.9579C62.1369 66.5463 61.9057 67.6337 60.9735 74.1505L64.5008 78.2021C64.5828 77.8148 64.6648 77.4573 64.7469 77.2116C65.7983 73.7707 67.2674 66.6133 67.3867 66.0398L31.8905 35.9059L19.9068 26.3951ZM17.2521 25.0247C17.2521 25.0247 17.3192 25.2555 17.4311 25.6801L17.2521 25.0247Z" fill="black"/>
<path d="M9.25821 19.7962L2.88232 15.8414C3.93337 19.0131 4.63599 22.2896 4.97779 25.613L6.36483 26.8717C6.36483 26.8717 7.92338 27.8697 10.5707 29.6944C10.1009 25.3225 9.57141 21.7401 9.25821 19.7962Z" fill="black"/>
<path d="M124.934 117.869C126.299 119.947 128.968 123.984 132.048 128.52L132.69 128.758C134.927 129.57 137.022 130.344 139.028 131.096L138.193 129.905L124.934 117.869Z" fill="black"/>
<path d="M124.874 117.81L124.934 117.869L123.972 116.38C123.972 116.38 124.307 116.931 124.874 117.81Z" fill="black"/>
</g>
<path d="M146.381 135.282C138.051 128.11 138.178 123.991 73.7031 69.5924C44.0086 44.5602 17.4387 22.8871 -5 5.07935V9.81616C8.69884 20.6006 23.2702 32.4575 38.5201 45.4316C129.192 122.345 150.378 141.181 150.378 141.181C149.478 138.954 148.116 136.944 146.381 135.282Z" fill="#5DB957"/>
<g opacity="0.3">
<path d="M95.4554 153.008C96.574 156.226 100.877 166.578 100.877 166.578C99.8731 161.289 99.3218 155.925 99.2288 150.543C97.9959 147.04 96.4302 143.663 94.5531 140.458C94.2548 145.314 94.6277 150.61 95.4554 153.008Z" fill="black"/>
<path d="M149.699 151.459C154.845 156.672 160.885 163.01 160.885 163.01C160.885 163.01 156.664 155.622 152.749 149.962C152.056 149.326 151.252 148.821 150.378 148.472C150.109 149.433 149.915 150.446 149.699 151.459Z" fill="black"/>
<path d="M34.0979 93.4999C34.7615 99.1155 35.8876 104.873 36.2828 110.481C35.4029 108.641 34.4111 106.377 33.2104 104.15C33.3521 115.054 34.9331 131.387 34.9331 131.387C34.9331 131.387 35.9472 108.783 37.5431 99.7114C37.6922 98.8623 37.8861 97.9835 38.0725 97.1046C37.1583 95.5169 35.7681 94.2561 34.0979 93.4999Z" fill="black"/>
<path d="M56.4692 135.997C57.2149 140.421 60.5557 150.081 60.5557 150.081C60.5557 150.081 57.8861 129.227 60.0188 113.244C60.3096 111.099 60.5856 108.947 60.8466 106.817C60.1281 103.302 59.1154 99.854 57.8189 96.5088C54.4707 120.923 55.7384 131.677 56.4692 135.997Z" fill="black"/>
<path d="M115.448 168.663C113.77 163.401 112.562 158 111.839 152.524C111.239 151.781 110.568 151.1 109.833 150.491C109.922 153.879 109.99 157.685 109.833 161.461C109.989 161.9 110.207 162.314 110.482 162.69C112.264 164.947 115.448 168.663 115.448 168.663Z" fill="black"/>
<path d="M9.29538 73.9122L9.16861 73.793C7.25211 76.1912 7.05077 79.58 6.51385 82.641C6.18574 76.4593 6.6108 68.7359 6.22302 61.2062C5.86508 75.0964 4.73159 82.5591 5.07462 85.8659C5.58916 90.6102 8.92998 103.681 8.92998 103.681C8.92998 103.681 8.50492 88.5471 9.29538 73.9122Z" fill="black"/>
<path d="M146.105 165.885C147.597 167.181 148.597 167.911 148.597 167.911C148.597 167.911 147.895 166.288 146.799 163.725C146.582 164.448 146.381 165.17 146.105 165.885Z" fill="black"/>
<path d="M129.035 169.632C130.214 171.076 131.087 172 131.087 172C131.087 172 130.453 169.766 129.595 166.578C129.408 167.576 129.229 168.611 129.035 169.632Z" fill="black"/>
<path d="M-0.436074 52.8795C-0.615046 54.7862 -0.779104 56.6779 -1.11468 58.4579C-2.16614 64.0512 -4.86564 71.0522 -4.40329 77.003C-1.92005 84.2795 1.24925 91.8987 1.24925 91.8987C1.24925 91.8987 0.0635571 73.078 -0.391331 55.2628C-0.406245 54.4882 -0.421159 53.6988 -0.436074 52.8795Z" fill="black"/>
<path d="M26.8496 122.144C27.0279 123.307 27.4038 124.43 27.9612 125.466C27.9612 125.466 27.4762 124.058 26.8496 122.144Z" fill="black"/>
<path d="M13.2028 100.404C13.7621 103.711 16.3199 113.81 16.3199 113.81C16.3199 113.81 17.2744 100.225 18.4452 87.5863C17.1235 84.7375 15.6293 81.9717 13.9709 79.3043C13.0387 91.4443 12.8374 98.2367 13.2028 100.404Z" fill="black"/>
<path d="M27.2822 107.993C27.8116 105.014 28.5574 101.827 29.3031 98.5272C28.2835 97.4097 27.0515 96.5058 25.6789 95.8683C24.6722 104.508 23.6878 110.228 24.0831 112.462C24.8394 115.737 25.7704 118.969 26.872 122.144C26.3202 119.433 26.007 114.912 27.2822 107.993Z" fill="black"/>
<path d="M73.4944 124.021C72.7487 120.997 72.0029 117.095 71.1305 113.207C70.3102 120.446 69.5495 126.166 69.639 129.801C69.8329 137.725 73.8822 156.613 73.8822 156.613C73.8822 156.613 70.9142 136.109 73.4944 124.021Z" fill="black"/>
<path d="M80.2505 137.926C80.0481 139.454 79.9782 140.996 80.0417 142.536C80.5115 148.703 86.4847 162.184 86.4847 162.184C86.4847 162.184 86.2088 158.035 86.0821 152.129C83.9493 147.556 82.0477 142.752 80.2505 137.926Z" fill="black"/>
</g>
</svg>
